<svg width="24" height="24" viewBox="0 0 24 24" xmlns="http://www.w3.org/2000/svg">
    <g fill="none" fill-rule="evenodd">
        <path d="M0 0h24v24H0z"/>
        <path d="M6.7 3.037v5.4H5.3v-3.14c-3.181 3.574-3.345 9.034-.178 12.807a9.786 9.786 0 0 0 2.455 2.101 9.833 9.833 0 0 0 8.366.826l.379-.146.528 1.297a11.233 11.233 0 0 1-9.995-.777c-1.053-.633-2-1.44-2.806-2.401C.451 14.716.615 8.522 4.191 4.437H1.3v-1.4h5.4zM12 .8C18.186.8 23.2 5.814 23.2 12c0 2.837-1.06 5.51-2.937 7.56-.34.371-.704.72-1.09 1.042L22.4 20.6V22H17v-5.4h1.4l.002 2.82A9.76 9.76 0 0 0 21.8 12c0-5.412-4.388-9.8-9.8-9.8-1.341 0-2.643.27-3.847.784l-.326.146-.597-1.266C8.71 1.166 10.33.8 12 .8z" fill="#212529" fill-rule="nonzero"/>
    </g>
</svg>
