<svg width="32" height="32" viewBox="0 0 32 32" fill="none" xmlns="http://www.w3.org/2000/svg">
<path d="M24.3856 4L10.0429 28H6.13672L20.6385 4H24.3856Z" fill="#0098C8"/>
<path d="M8.59417 15.3289C5.50986 15.3289 3 12.7875 3 9.66443C3 6.54139 5.50986 4 8.59417 4C11.6785 4 14.1883 6.54139 14.1883 9.66443C14.1883 12.7875 11.6785 15.3289 8.59417 15.3289ZM8.59417 7.13199C7.21551 7.13199 6.09314 8.26846 6.09314 9.66443C6.09314 11.0604 7.21551 12.1969 8.59417 12.1969C9.97282 12.1969 11.0952 11.0604 11.0952 9.66443C11.0952 8.26846 9.97282 7.13199 8.59417 7.13199Z" fill="#0098C8"/>
<path d="M23.4067 27.9988C20.3224 27.9988 17.8125 25.4574 17.8125 22.3344C17.8125 19.2113 20.3224 16.6699 23.4067 16.6699C26.491 16.6699 29.0008 19.2113 29.0008 22.3344C29.0008 25.4574 26.491 27.9988 23.4067 27.9988ZM23.4067 19.8019C22.028 19.8019 20.9056 20.9384 20.9056 22.3344C20.9056 23.7303 22.028 24.8668 23.4067 24.8668C24.7853 24.8668 25.9077 23.7303 25.9077 22.3344C25.9077 20.9384 24.7853 19.8019 23.4067 19.8019Z" fill="#0098C8"/>
</svg>
