<svg width="500" height="315" viewBox="0 0 500 315" fill="none" xmlns="http://www.w3.org/2000/svg">
<rect x="6" y="164" width="198" height="50" rx="20" fill="#274C80"/>
<path d="M38.7286 182.688H40.4086V197.344H38.7286V182.688ZM32.6166 183.776C34.8086 183.776 36.3926 185.776 36.3926 188.928C36.3926 192.08 34.8086 194.096 32.6166 194.096C30.4406 194.096 28.8566 192.08 28.8566 188.928C28.8566 185.776 30.4406 183.776 32.6166 183.776ZM32.6166 185.296C31.3366 185.296 30.4566 186.656 30.4566 188.928C30.4566 191.216 31.3366 192.592 32.6166 192.592C33.8966 192.592 34.7766 191.216 34.7766 188.928C34.7766 186.656 33.8966 185.296 32.6166 185.296ZM50.1291 183.904H51.4891V186.304C51.4891 189.712 49.9691 192.976 47.4571 194.256L46.4331 192.912C48.7051 191.808 50.1291 189.008 50.1291 186.304V183.904ZM50.4491 183.904H51.7931V186.304C51.7931 188.912 53.1691 191.568 55.3611 192.656L54.3371 193.984C51.9051 192.72 50.4491 189.6 50.4491 186.304V183.904ZM56.3371 182.704H58.0171V197.328H56.3371V182.704ZM57.6331 188.496H60.2891V189.888H57.6331V188.496ZM71.1359 182.72H72.8159V191.408H71.1359V182.72ZM72.3199 186.32H74.8799V187.712H72.3199V186.32ZM63.4719 192.096H72.8159V197.152H63.4719V192.096ZM71.1839 193.408H65.1199V195.808H71.1839V193.408ZM61.9839 189.392H63.1679C65.9199 189.392 67.7599 189.328 69.9199 188.944L70.0639 190.288C67.8719 190.688 65.9839 190.768 63.1679 190.768H61.9839V189.392ZM61.9519 183.472H68.5759V187.68H63.6319V190.16H61.9839V186.416H66.9279V184.816H61.9519V183.472ZM80.4724 183.616H87.4004V190.064H80.4724V183.616ZM85.7684 184.944H82.1044V188.736H85.7684V184.944ZM90.0884 182.72H91.7684V191.008H90.0884V182.72ZM82.2164 191.792H91.8644V193.136H83.8804V196.544H82.2164V191.792ZM82.2164 195.808H92.1364V197.152H82.2164V195.808ZM101.031 182.928C104.311 182.928 106.247 183.824 106.247 185.456C106.247 187.072 104.311 187.968 101.031 187.968C97.7511 187.968 95.8311 187.072 95.8311 185.456C95.8311 183.824 97.7511 182.928 101.031 182.928ZM101.031 184.176C98.7751 184.176 97.5591 184.624 97.5591 185.456C97.5591 186.288 98.7751 186.72 101.031 186.72C103.303 186.72 104.503 186.288 104.503 185.456C104.503 184.624 103.303 184.176 101.031 184.176ZM94.4231 188.816H107.639V190.144H94.4231V188.816ZM95.9911 191.216H105.991V194.704H97.6711V196.272H96.0071V193.52H104.343V192.464H95.9911V191.216ZM96.0071 195.904H106.407V197.2H96.0071V195.904ZM118.48 183.184H119.952V183.936C119.952 186.736 117.376 188.912 114 189.456L113.344 188.096C116.304 187.68 118.48 185.856 118.48 183.936V183.184ZM118.784 183.184H120.24V183.936C120.24 185.824 122.432 187.68 125.392 188.096L124.736 189.456C121.36 188.912 118.784 186.72 118.784 183.936V183.184ZM118.48 191.856H120.144V197.328H118.48V191.856ZM112.752 190.8H125.968V192.176H112.752V190.8ZM134.536 191.648H135.816V192.304C135.816 194.352 134.712 196.32 132.52 197.12L131.704 195.888C133.576 195.232 134.536 193.712 134.536 192.304V191.648ZM134.936 191.648H136.152V192.304C136.152 193.744 136.968 195.28 138.728 196L138.04 197.264C135.832 196.416 134.936 194.336 134.936 192.304V191.648ZM139.912 191.648H141.128V192.304C141.128 194.16 140.2 196.368 138.04 197.264L137.352 196C139.096 195.216 139.912 193.584 139.912 192.304V191.648ZM140.28 191.648H141.56V192.304C141.56 193.808 142.504 195.28 144.392 195.888L143.576 197.12C141.352 196.352 140.28 194.448 140.28 192.304V191.648ZM141.432 182.72H143.112V191.024H141.432V182.72ZM135.224 183.52C137.464 183.52 139.096 184.928 139.096 186.976C139.096 188.992 137.464 190.416 135.224 190.416C132.984 190.416 131.336 188.992 131.336 186.976C131.336 184.928 132.984 183.52 135.224 183.52ZM135.224 184.912C133.928 184.912 132.968 185.728 132.968 186.976C132.968 188.224 133.928 189.024 135.224 189.024C136.52 189.024 137.464 188.224 137.464 186.976C137.464 185.728 136.52 184.912 135.224 184.912ZM152.375 182.928C155.655 182.928 157.591 183.824 157.591 185.456C157.591 187.072 155.655 187.968 152.375 187.968C149.095 187.968 147.175 187.072 147.175 185.456C147.175 183.824 149.095 182.928 152.375 182.928ZM152.375 184.176C150.119 184.176 148.903 184.624 148.903 185.456C148.903 186.288 150.119 186.72 152.375 186.72C154.647 186.72 155.847 186.288 155.847 185.456C155.847 184.624 154.647 184.176 152.375 184.176ZM145.767 188.816H158.983V190.144H145.767V188.816ZM147.335 191.216H157.335V194.704H149.015V196.272H147.351V193.52H155.687V192.464H147.335V191.216ZM147.351 195.904H157.751V197.2H147.351V195.904ZM170.358 182.704H172.038V197.328H170.358V182.704ZM171.51 188.592H174.086V189.984H171.51V188.592ZM163.286 184.24H164.838C164.838 188 164.262 191.28 161.654 194.144L160.326 193.184C162.662 190.688 163.286 187.92 163.286 184.432V184.24ZM160.87 184.24H163.926V185.616H160.87V184.24ZM167.286 184.24H168.854C168.854 188.096 168.422 191.904 165.782 195.088L164.454 194.16C166.822 191.328 167.286 188.064 167.286 184.416V184.24ZM165.318 184.24H167.974V185.616H165.318V184.24ZM177.316 192.256C176.932 189.552 179.732 188.528 179.732 186.8C179.732 185.904 179.172 185.248 178.164 185.248C177.412 185.248 176.756 185.616 176.212 186.224L175.172 185.264C175.956 184.368 177.028 183.728 178.372 183.728C180.244 183.728 181.524 184.784 181.524 186.672C181.524 188.992 178.676 189.856 178.948 192.256H177.316ZM178.164 196.224C177.46 196.224 176.932 195.68 176.932 194.928C176.932 194.16 177.46 193.632 178.164 193.632C178.852 193.632 179.396 194.16 179.396 194.928C179.396 195.68 178.852 196.224 178.164 196.224Z" fill="white"/>
<rect x="6" y="60" width="198" height="76" rx="20" fill="#274C80"/>
<path d="M36.0664 79.184C38.2744 79.184 39.9064 80.544 39.9064 82.48C39.9064 84.4 38.2744 85.76 36.0664 85.76C33.8744 85.76 32.2424 84.4 32.2424 82.48C32.2424 80.544 33.8744 79.184 36.0664 79.184ZM36.0664 80.56C34.8024 80.56 33.8584 81.312 33.8584 82.48C33.8584 83.648 34.8024 84.4 36.0664 84.4C37.3464 84.4 38.2744 83.648 38.2744 82.48C38.2744 81.312 37.3464 80.56 36.0664 80.56ZM42.3384 78.704H44.0184V86.112H42.3384V78.704ZM34.4344 86.784H44.0184V90.528H36.0984V92.544H34.4664V89.296H42.3544V88.096H34.4344V86.784ZM34.4664 91.824H44.4504V93.152H34.4664V91.824ZM54.5451 82.384H57.6011V83.76H54.5451V82.384ZM57.1211 78.704H58.8011V87.408H57.1211V78.704ZM53.9211 87.792C56.9771 87.792 58.8491 88.832 58.8491 90.56C58.8491 92.32 56.9771 93.328 53.9211 93.328C50.8651 93.328 48.9931 92.32 48.9931 90.56C48.9931 88.832 50.8651 87.792 53.9211 87.792ZM53.9211 89.088C51.8571 89.088 50.6571 89.6 50.6571 90.56C50.6571 91.52 51.8571 92.032 53.9211 92.032C56.0011 92.032 57.1851 91.52 57.1851 90.56C57.1851 89.6 56.0011 89.088 53.9211 89.088ZM50.2571 80.176H51.6171V81.248C51.6171 83.984 50.1291 86.4 47.5371 87.328L46.6731 86C48.9611 85.2 50.2571 83.248 50.2571 81.248V80.176ZM50.5931 80.176H51.9371V81.232C51.9371 83.056 53.1851 84.864 55.3771 85.616L54.5451 86.944C52.0171 86.064 50.5931 83.76 50.5931 81.232V80.176ZM47.1531 79.696H54.9931V81.04H47.1531V79.696ZM61.3919 86.288H74.6079V87.632H61.3919V86.288ZM63.0559 91.68H73.1359V93.04H63.0559V91.68ZM63.0559 88.784H64.7359V92.096H63.0559V88.784ZM67.9999 79.168C71.1519 79.168 73.2159 80.288 73.2159 82.128C73.2159 83.968 71.1519 85.088 67.9999 85.088C64.8479 85.088 62.7999 83.968 62.7999 82.128C62.7999 80.288 64.8479 79.168 67.9999 79.168ZM67.9999 80.512C65.8559 80.512 64.5279 81.104 64.5279 82.128C64.5279 83.168 65.8559 83.744 67.9999 83.744C70.1599 83.744 71.4879 83.168 71.4879 82.128C71.4879 81.104 70.1599 80.512 67.9999 80.512ZM90.1524 78.704H91.8164V86.08H90.1524V78.704ZM86.9364 81.792H90.8404V83.152H86.9364V81.792ZM83.7204 79.152C85.9124 79.152 87.5284 80.528 87.5284 82.496C87.5284 84.448 85.9124 85.84 83.7204 85.84C81.5284 85.84 79.9124 84.448 79.9124 82.496C79.9124 80.528 81.5284 79.152 83.7204 79.152ZM83.7204 80.528C82.4564 80.528 81.5124 81.312 81.5124 82.496C81.5124 83.696 82.4564 84.48 83.7204 84.48C84.9844 84.48 85.9124 83.696 85.9124 82.496C85.9124 81.312 84.9844 80.528 83.7204 80.528ZM82.2964 86.8H91.8164V90.528H83.9764V92.544H82.3284V89.296H90.1684V88.112H82.2964V86.8ZM82.3284 91.824H92.3124V93.152H82.3284V91.824ZM94.9511 80.128H101.783V89.68H94.9511V80.128ZM100.135 81.456H96.5991V88.352H100.135V81.456ZM104.087 78.704H105.767V93.328H104.087V78.704ZM105.383 84.4H108.039V85.792H105.383V84.4ZM120.038 84.4H122.678V85.792H120.038V84.4ZM118.806 78.688H120.486V93.312H118.806V78.688ZM109.67 80.112H111.334V89.184H109.67V80.112ZM109.67 88.272H110.87C112.998 88.272 115.238 88.128 117.622 87.648L117.814 89.024C115.35 89.536 113.062 89.68 110.87 89.68H109.67V88.272ZM137.902 78.704H139.582V86.112H137.902V78.704ZM135.006 82.032H138.126V83.376H135.006V82.032ZM133.102 79.344H134.862C134.862 83.056 132.462 85.408 128.238 86.464L127.662 85.12C131.278 84.272 133.102 82.464 133.102 80.144V79.344ZM128.462 79.344H134.478V80.688H128.462V79.344ZM130.062 86.72H139.582V90.512H131.758V92.592H130.094V89.248H137.902V88.048H130.062V86.72ZM130.094 91.856H139.982V93.184H130.094V91.856ZM142.909 84.608H144.125C147.133 84.608 148.909 84.56 151.037 84.224L151.197 85.504C149.021 85.856 147.181 85.92 144.125 85.92H142.909V84.608ZM142.877 79.392H149.629V83.184H144.557V85.232H142.909V81.984H147.981V80.672H142.877V79.392ZM144.653 86.96H154.237V90.608H146.365V92.448H144.685V89.408H152.525V88.24H144.653V86.96ZM144.685 91.904H154.669V93.2H144.685V91.904ZM152.557 78.704H154.237V86.352H152.557V78.704ZM166.764 78.704H168.444V93.328H166.764V78.704ZM167.916 84.592H170.492V85.984H167.916V84.592ZM159.692 80.24H161.244C161.244 84 160.668 87.28 158.06 90.144L156.732 89.184C159.068 86.688 159.692 83.92 159.692 80.432V80.24ZM157.276 80.24H160.332V81.616H157.276V80.24ZM163.692 80.24H165.26C165.26 84.096 164.828 87.904 162.188 91.088L160.86 90.16C163.228 87.328 163.692 84.064 163.692 80.416V80.24ZM161.724 80.24H164.38V81.616H161.724V80.24ZM173.723 88.256C173.339 85.552 176.139 84.528 176.139 82.8C176.139 81.904 175.579 81.248 174.571 81.248C173.819 81.248 173.163 81.616 172.619 82.224L171.579 81.264C172.363 80.368 173.435 79.728 174.779 79.728C176.651 79.728 177.931 80.784 177.931 82.672C177.931 84.992 175.083 85.856 175.355 88.256H173.723ZM174.571 92.224C173.867 92.224 173.339 91.68 173.339 90.928C173.339 90.16 173.867 89.632 174.571 89.632C175.259 89.632 175.803 90.16 175.803 90.928C175.803 91.68 175.259 92.224 174.571 92.224ZM53.6993 104.704H55.3793V115.536H53.6993V104.704ZM49.2033 105.824H50.9792C50.9792 109.68 48.3713 112.56 44.1793 113.888L43.4753 112.56C46.9953 111.424 49.2033 109.248 49.2033 106.56V105.824ZM44.2273 105.824H50.2433V107.184H44.2273V105.824ZM50.2433 107.616H53.9393V108.976H50.2433V107.616ZM50.0993 110.912H53.8753V112.272H50.0993V110.912ZM45.9873 117.68H55.7473V119.04H45.9873V117.68ZM45.9873 114.496H47.6673V118.528H45.9873V114.496ZM61.554 106.176H62.914V107.248C62.914 109.952 61.426 112.352 58.818 113.248L57.97 111.92C60.242 111.152 61.554 109.216 61.554 107.248V106.176ZM61.89 106.176H63.234V107.248C63.234 109.056 64.482 110.864 66.674 111.616L65.842 112.944C63.314 112.064 61.89 109.76 61.89 107.248V106.176ZM65.858 108.368H68.898V109.744H65.858V108.368ZM58.45 105.616H66.29V106.96H58.45V105.616ZM60.242 114.16H70.098V119.328H68.418V115.52H60.242V114.16ZM68.418 104.704H70.098V113.424H68.418V104.704ZM79.2968 104.928C82.5768 104.928 84.5128 105.824 84.5128 107.456C84.5128 109.072 82.5768 109.968 79.2968 109.968C76.0168 109.968 74.0968 109.072 74.0968 107.456C74.0968 105.824 76.0168 104.928 79.2968 104.928ZM79.2968 106.176C77.0408 106.176 75.8248 106.624 75.8248 107.456C75.8248 108.288 77.0408 108.72 79.2968 108.72C81.5688 108.72 82.7688 108.288 82.7688 107.456C82.7688 106.624 81.5688 106.176 79.2968 106.176ZM72.6888 110.816H85.9048V112.144H72.6888V110.816ZM74.2568 113.216H84.2568V116.704H75.9368V118.272H74.2728V115.52H82.6088V114.464H74.2568V113.216ZM74.2728 117.904H84.6728V119.2H74.2728V117.904ZM94.4253 105.824H95.8013V106.864C95.8013 109.424 94.2812 111.584 91.6253 112.384L90.8092 111.056C93.1293 110.384 94.4253 108.672 94.4253 106.864V105.824ZM94.7613 105.824H96.1213V106.864C96.1213 108.496 97.3853 110.08 99.6253 110.72L98.8413 112.032C96.2493 111.28 94.7613 109.216 94.7613 106.864V105.824ZM91.3213 105.44H99.1773V106.8H91.3213V105.44ZM100.745 104.704H102.425V112.208H100.745V104.704ZM101.721 107.744H104.473V109.12H101.721V107.744ZM92.9853 112.848H102.425V116.544H94.6653V118.624H93.0013V115.344H100.777V114.128H92.9853V112.848ZM93.0013 117.904H102.905V119.184H93.0013V117.904ZM109.33 116.16H122.578V117.536H109.33V116.16ZM115.09 112.624H116.754V116.512H115.09V112.624ZM110.802 105.856H121.026V112.88H110.802V105.856ZM119.394 107.2H112.45V111.536H119.394V107.2ZM124.049 116.192H137.297V117.584H124.049V116.192ZM125.601 105.76H135.713V110.4H127.297V113.104H125.633V109.072H134.049V107.12H125.601V105.76ZM125.633 112.432H136.049V113.776H125.633V112.432ZM143.487 105.744H145.167C145.167 109.328 143.359 111.888 139.663 113.44L138.831 112.208C141.983 110.944 143.487 108.96 143.487 106.32V105.744ZM139.519 105.744H144.143V107.104H139.519V105.744ZM149.551 104.704H151.135V113.088H149.551V104.704ZM143.583 108.704H146.911V110.048H143.583V108.704ZM146.607 105.008H148.175V112.88H146.607V105.008ZM142.367 113.568H143.631V114.384C143.631 116.448 142.527 118.432 140.335 119.248L139.519 118.016C141.375 117.344 142.367 115.824 142.367 114.384V113.568ZM142.767 113.568H143.983V114.384C143.983 115.856 144.767 117.392 146.543 118.144L145.855 119.376C143.647 118.528 142.767 116.432 142.767 114.384V113.568ZM147.711 113.568H148.927V114.384C148.927 116.256 148.015 118.48 145.855 119.376L145.135 118.144C146.911 117.328 147.711 115.664 147.711 114.384V113.568ZM148.079 113.568H149.359V114.384C149.359 115.92 150.319 117.408 152.191 118.016L151.375 119.248C149.167 118.464 148.079 116.544 148.079 114.384V113.568ZM157.422 105.776C159.582 105.776 161.118 107.776 161.118 110.928C161.118 114.08 159.582 116.096 157.422 116.096C155.262 116.096 153.726 114.08 153.726 110.928C153.726 107.776 155.262 105.776 157.422 105.776ZM157.422 107.296C156.174 107.296 155.326 108.656 155.326 110.928C155.326 113.216 156.174 114.592 157.422 114.592C158.686 114.592 159.534 113.216 159.534 110.928C159.534 108.656 158.686 107.296 157.422 107.296ZM163.95 104.688H165.614V119.344H163.95V104.688ZM160.606 110.144H164.67V111.488H160.606V110.144Z" fill="white"/>
<path d="M180 142.942V132H165L176.541 144.31C177.781 145.633 180 144.756 180 142.942Z" fill="#274C80"/>
<rect x="296" y="60" width="198" height="76" rx="20" fill="#274C80"/>
<path d="M336.74 78.704H338.34V93.328H336.74V78.704ZM334.532 84.512H337.172V85.872H334.532V84.512ZM333.444 78.992H335.012V92.608H333.444V78.992ZM326.548 80.4H328.228V88.848H326.548V80.4ZM326.548 88.192H327.508C328.98 88.192 330.628 88.112 332.5 87.744L332.676 89.2C330.724 89.568 329.044 89.632 327.508 89.632H326.548V88.192ZM350.275 78.688H351.955V93.312H350.275V78.688ZM351.507 84.48H354.147V85.856H351.507V84.48ZM346.483 80.24H348.131C348.131 84.496 346.323 88.256 341.539 90.656L340.595 89.376C344.547 87.36 346.483 84.432 346.483 80.528V80.24ZM341.331 80.24H347.347V81.6H341.331V80.24ZM362.923 86.128H364.603V89.36H362.923V86.128ZM369.371 78.704H371.051V89.808H369.371V78.704ZM360.827 91.68H371.387V93.04H360.827V91.68ZM360.827 88.736H362.507V92.048H360.827V88.736ZM359.083 86.688L358.859 85.328C361.547 85.328 365.147 85.296 368.235 84.896L368.347 86.112C365.211 86.624 361.723 86.688 359.083 86.688ZM366.491 87.28H369.771V88.464H366.491V87.28ZM363.595 79.264C365.723 79.264 367.211 80.288 367.211 81.84C367.211 83.392 365.723 84.4 363.595 84.4C361.451 84.4 359.979 83.392 359.979 81.84C359.979 80.288 361.451 79.264 363.595 79.264ZM363.595 80.496C362.395 80.496 361.563 80.992 361.563 81.84C361.563 82.672 362.395 83.168 363.595 83.168C364.779 83.168 365.611 82.672 365.611 81.84C365.611 80.992 364.779 80.496 363.595 80.496ZM383.322 78.704H384.986V93.328H383.322V78.704ZM384.602 84.576H387.258V85.968H384.602V84.576ZM373.578 80.96H382.154V82.304H373.578V80.96ZM377.914 83.36C379.994 83.36 381.53 84.768 381.53 86.768C381.53 88.784 379.994 90.192 377.914 90.192C375.818 90.192 374.282 88.784 374.282 86.768C374.282 84.768 375.818 83.36 377.914 83.36ZM377.914 84.736C376.73 84.736 375.882 85.536 375.882 86.768C375.882 88 376.73 88.816 377.914 88.816C379.082 88.816 379.93 88 379.93 86.768C379.93 85.536 379.082 84.736 377.914 84.736ZM377.05 78.912H378.73V81.52H377.05V78.912ZM390.089 82.896H400.105V84.24H390.089V82.896ZM388.361 86H401.609V87.36H388.361V86ZM390.089 79.232H391.753V83.568H390.089V79.232ZM389.977 91.632H400.185V92.992H389.977V91.632ZM389.977 88.688H391.641V92H389.977V88.688ZM417.121 78.704H418.801V86.112H417.121V78.704ZM412.385 79.344H414.209C414.209 83.12 411.793 85.44 407.457 86.448L406.881 85.088C410.609 84.272 412.385 82.496 412.385 80.224V79.344ZM407.681 79.344H413.105V80.704H407.681V79.344ZM413.665 80.688H417.361V81.984H413.665V80.688ZM413.553 83.504H417.281V84.784H413.553V83.504ZM409.281 86.72H418.801V90.512H410.977V92.608H409.313V89.248H417.121V88.048H409.281V86.72ZM409.313 91.856H419.201V93.184H409.313V91.856ZM422.032 80.24H428.512V81.584H422.032V80.24ZM424.144 84.416H425.792V89.376H424.144V84.416ZM427.824 80.24H429.488V81.2C429.488 82.496 429.488 84.336 429.072 86.928L427.424 86.784C427.824 84.272 427.824 82.48 427.824 81.2V80.24ZM431.056 78.704H432.72V93.328H431.056V78.704ZM432.256 84.704H434.896V86.112H432.256V84.704ZM421.44 90.24L421.264 88.864C423.872 88.864 427.344 88.816 430.272 88.448L430.352 89.68C427.36 90.176 424 90.24 421.44 90.24ZM441.871 85.664H443.535V87.824H441.871V85.664ZM436.111 84.704H449.327V86.032H436.111V84.704ZM437.791 79.168H447.631V83.68H437.791V79.168ZM445.983 80.48H439.439V82.368H445.983V80.48ZM437.679 87.232H447.679V90.736H439.359V92.288H437.695V89.536H446.031V88.496H437.679V87.232ZM437.695 91.904H448.095V93.2H437.695V91.904ZM457.437 78.928C460.717 78.928 462.653 79.824 462.653 81.456C462.653 83.072 460.717 83.968 457.437 83.968C454.157 83.968 452.237 83.072 452.237 81.456C452.237 79.824 454.157 78.928 457.437 78.928ZM457.437 80.176C455.181 80.176 453.965 80.624 453.965 81.456C453.965 82.288 455.181 82.72 457.437 82.72C459.709 82.72 460.909 82.288 460.909 81.456C460.909 80.624 459.709 80.176 457.437 80.176ZM450.829 84.816H464.045V86.144H450.829V84.816ZM452.397 87.216H462.397V90.704H454.077V92.272H452.413V89.52H460.749V88.464H452.397V87.216ZM452.413 91.904H462.813V93.2H452.413V91.904ZM353.777 104.704H355.457V113.248H353.777V104.704ZM354.993 108.128H357.521V109.52H354.993V108.128ZM344.561 105.536H346.225V107.6H349.793V105.536H351.441V112.416H344.561V105.536ZM346.225 108.912V111.088H349.793V108.912H346.225ZM346.161 113.984H355.553V115.312H347.825V118.752H346.161V113.984ZM346.161 117.792H355.841V119.136H346.161V117.792ZM365.359 104.928C368.639 104.928 370.575 105.824 370.575 107.456C370.575 109.072 368.639 109.968 365.359 109.968C362.079 109.968 360.159 109.072 360.159 107.456C360.159 105.824 362.079 104.928 365.359 104.928ZM365.359 106.176C363.103 106.176 361.887 106.624 361.887 107.456C361.887 108.288 363.103 108.72 365.359 108.72C367.631 108.72 368.831 108.288 368.831 107.456C368.831 106.624 367.631 106.176 365.359 106.176ZM358.751 110.816H371.967V112.144H358.751V110.816ZM360.319 113.216H370.319V116.704H361.999V118.272H360.335V115.52H368.671V114.464H360.319V113.216ZM360.335 117.904H370.735V119.2H360.335V117.904ZM382.808 105.184H384.28V105.936C384.28 108.736 381.704 110.912 378.328 111.456L377.672 110.096C380.632 109.68 382.808 107.856 382.808 105.936V105.184ZM383.112 105.184H384.568V105.936C384.568 107.824 386.76 109.68 389.72 110.096L389.064 111.456C385.688 110.912 383.112 108.72 383.112 105.936V105.184ZM382.808 113.856H384.472V119.328H382.808V113.856ZM377.08 112.8H390.296V114.176H377.08V112.8ZM398.864 113.648H400.144V114.304C400.144 116.352 399.04 118.32 396.848 119.12L396.032 117.888C397.904 117.232 398.864 115.712 398.864 114.304V113.648ZM399.264 113.648H400.48V114.304C400.48 115.744 401.296 117.28 403.056 118L402.368 119.264C400.16 118.416 399.264 116.336 399.264 114.304V113.648ZM404.24 113.648H405.456V114.304C405.456 116.16 404.528 118.368 402.368 119.264L401.68 118C403.424 117.216 404.24 115.584 404.24 114.304V113.648ZM404.608 113.648H405.888V114.304C405.888 115.808 406.832 117.28 408.72 117.888L407.904 119.12C405.68 118.352 404.608 116.448 404.608 114.304V113.648ZM405.76 104.72H407.44V113.024H405.76V104.72ZM399.552 105.52C401.792 105.52 403.424 106.928 403.424 108.976C403.424 110.992 401.792 112.416 399.552 112.416C397.312 112.416 395.664 110.992 395.664 108.976C395.664 106.928 397.312 105.52 399.552 105.52ZM399.552 106.912C398.256 106.912 397.296 107.728 397.296 108.976C397.296 110.224 398.256 111.024 399.552 111.024C400.848 111.024 401.792 110.224 401.792 108.976C401.792 107.728 400.848 106.912 399.552 106.912ZM416.703 104.928C419.983 104.928 421.919 105.824 421.919 107.456C421.919 109.072 419.983 109.968 416.703 109.968C413.423 109.968 411.503 109.072 411.503 107.456C411.503 105.824 413.423 104.928 416.703 104.928ZM416.703 106.176C414.447 106.176 413.231 106.624 413.231 107.456C413.231 108.288 414.447 108.72 416.703 108.72C418.975 108.72 420.175 108.288 420.175 107.456C420.175 106.624 418.975 106.176 416.703 106.176ZM410.095 110.816H423.311V112.144H410.095V110.816ZM411.663 113.216H421.663V116.704H413.343V118.272H411.679V115.52H420.015V114.464H411.663V113.216ZM411.679 117.904H422.079V119.2H411.679V117.904ZM434.686 104.704H436.366V119.328H434.686V104.704ZM435.838 110.592H438.414V111.984H435.838V110.592ZM427.614 106.24H429.166C429.166 110 428.59 113.28 425.982 116.144L424.654 115.184C426.99 112.688 427.614 109.92 427.614 106.432V106.24ZM425.198 106.24H428.254V107.616H425.198V106.24ZM431.614 106.24H433.182C433.182 110.096 432.75 113.904 430.11 117.088L428.782 116.16C431.15 113.328 431.614 110.064 431.614 106.416V106.24ZM429.646 106.24H432.302V107.616H429.646V106.24ZM441.645 114.256C441.261 111.552 444.061 110.528 444.061 108.8C444.061 107.904 443.501 107.248 442.493 107.248C441.741 107.248 441.085 107.616 440.541 108.224L439.501 107.264C440.285 106.368 441.357 105.728 442.701 105.728C444.573 105.728 445.853 106.784 445.853 108.672C445.853 110.992 443.005 111.856 443.277 114.256H441.645ZM442.493 118.224C441.789 118.224 441.261 117.68 441.261 116.928C441.261 116.16 441.789 115.632 442.493 115.632C443.181 115.632 443.725 116.16 443.725 116.928C443.725 117.68 443.181 118.224 442.493 118.224Z" fill="white"/>
<path d="M320 142.677V132H334L323.505 143.994C322.289 145.384 320 144.524 320 142.677Z" fill="#274C80"/>
<g clip-path="url(#clip0_6072_693)">
<path d="M263.982 138.02V158.21C263.982 163.78 259.458 168.29 253.876 168.29C248.293 168.29 243.77 163.78 243.77 158.21V138.02H264.012H263.982Z" fill="#F78A80"/>
<path d="M276.267 133.171H231.469V116.291C231.469 103.941 241.495 93.9609 253.878 93.9609C266.261 93.9609 276.287 103.971 276.287 116.291V133.171H276.267Z" fill="#43312E"/>
<path d="M253.847 150.7C243.062 150.7 234.344 142 234.344 131.24V121.2C234.344 110.44 243.072 101.74 253.847 101.74C264.622 101.74 273.35 110.44 273.35 121.2V131.24C273.35 142 264.622 150.7 253.847 150.7Z" fill="#FFAFA4"/>
<path d="M231.268 136.79C235.122 136.79 238.258 133.67 238.258 129.82C238.258 125.97 235.132 122.85 231.268 122.85C227.403 122.85 224.277 125.97 224.277 129.82C224.277 133.67 227.403 136.79 231.268 136.79Z" fill="#FFAFA4"/>
<path d="M276.916 136.79C280.771 136.79 283.906 133.67 283.906 129.82C283.906 125.97 280.771 122.85 276.916 122.85C273.061 122.85 269.926 125.97 269.926 129.82C269.926 133.67 273.051 136.79 276.916 136.79Z" fill="#FFAFA4"/>
<path d="M249.523 137.02C249.663 137.16 249.912 137.14 250.032 137.02C251.261 135.76 252.718 135.14 254.097 135.16C255.375 135.2 256.583 135.84 257.602 137.02C257.722 137.16 257.941 137.19 258.111 137.09C258.251 136.97 258.301 136.78 258.211 136.61C257.372 135.21 256.014 134.3 254.436 134.1C254.246 134.1 254.067 134.08 253.907 134.08C252.579 134.08 251.3 134.64 250.332 135.65L249.533 136.54C249.393 136.68 249.413 136.93 249.553 137.05L249.533 137.03L249.523 137.02Z" fill="#F78A80"/>
<path d="M230.011 133.309C230.011 133.309 230.111 132.999 230.011 132.879C228.992 131.889 228.493 130.709 228.493 129.599C228.513 128.569 229.052 127.579 229.991 126.749C230.111 126.649 230.131 126.459 230.031 126.339C229.931 126.219 229.761 126.169 229.621 126.239C228.463 126.919 227.734 128.029 227.594 129.309C227.594 129.449 227.574 129.599 227.574 129.739C227.574 130.829 228.034 131.859 228.852 132.659L229.571 133.309C229.691 133.409 229.881 133.409 229.981 133.309H230.001H230.011Z" fill="#F78A80"/>
<path d="M278.283 126.29C278.283 126.29 278.183 126.6 278.283 126.72C279.302 127.71 279.801 128.89 279.801 130C279.781 131.03 279.242 132.02 278.303 132.85C278.183 132.95 278.163 133.14 278.263 133.26C278.363 133.38 278.533 133.43 278.673 133.36C279.831 132.68 280.56 131.57 280.7 130.29C280.7 130.15 280.72 130 280.72 129.86C280.72 128.77 280.26 127.74 279.442 126.94L278.723 126.29C278.603 126.19 278.413 126.19 278.313 126.29H278.293H278.283Z" fill="#F78A80"/>
<path d="M253.248 126.539C253.108 126.419 252.908 126.419 252.788 126.539C252.649 126.659 252.619 126.829 252.689 126.999C252.788 127.189 252.908 127.409 253.058 127.649C253.547 128.489 254.246 129.769 253.957 130.369C253.837 130.609 253.527 130.759 253.018 130.799C252.828 130.799 252.679 130.969 252.679 131.159C252.679 131.349 252.818 131.489 253.018 131.519H253.408C254.426 131.519 254.836 131.059 255.005 130.649C255.535 129.369 254.207 127.229 253.288 126.499L253.268 126.519L253.248 126.539Z" fill="#F78A80"/>
<path d="M248.664 127.76C249.203 127.76 249.633 127.18 249.633 126.46C249.633 125.74 249.203 125.16 248.664 125.16C248.125 125.16 247.695 125.74 247.695 126.46C247.695 127.18 248.125 127.76 248.664 127.76Z" fill="#43312E"/>
<path d="M259.059 127.76C259.598 127.76 260.027 127.18 260.027 126.46C260.027 125.74 259.598 125.16 259.059 125.16C258.519 125.16 258.09 125.74 258.09 126.46C258.09 127.18 258.519 127.76 259.059 127.76Z" fill="#43312E"/>
<path d="M269.326 97.4002C268.956 97.4002 268.627 97.3302 268.237 97.3302C268.237 97.3302 268.607 88.0202 254.117 88.0202C254.117 88.0202 246.987 87.6602 240.506 90.1402C238.718 90.9102 237.22 91.8702 236.012 92.9402C236.012 92.9402 235.842 93.1102 235.742 93.1802C235.433 93.4702 235.143 93.7402 234.844 94.0202C233.925 94.9402 233.176 95.8802 232.547 96.7202C232.527 96.7602 232.477 96.8202 232.447 96.8602C232.277 97.0802 232.157 97.2902 232.038 97.5102C228.772 102.89 228.992 110.51 229.022 111.3C229.581 117.11 231.319 122.83 231.319 122.83C231.488 122.83 231.658 122.83 231.828 122.85C233.036 122.99 234.394 123.53 234.394 123.53C234.394 123.53 238.209 116.75 237.32 111.76C237.32 111.76 241.574 115.23 250.472 110.58C250.472 110.58 266.28 100.28 270.774 113.55C270.774 113.55 272.492 118.01 273.44 123.8C273.44 123.8 275.038 122.86 276.336 122.86C276.336 122.86 279.122 114.06 278.903 107.16C278.084 99.2002 271.912 97.6602 269.376 97.3702L269.336 97.3902H269.326V97.4002Z" fill="#43312E"/>
<path d="M262.996 122.3C263.036 121.85 261.758 121.36 260.13 121.21C258.502 121.06 257.164 121.31 257.114 121.76C257.074 122.21 258.352 122.7 259.98 122.85C261.608 123 262.946 122.75 262.996 122.3Z" fill="#43312E"/>
<path d="M247.755 122.83C249.382 122.68 250.651 122.2 250.621 121.74C250.581 121.29 249.233 121.04 247.605 121.19C245.987 121.34 244.709 121.82 244.739 122.28C244.779 122.73 246.127 122.98 247.755 122.83Z" fill="#43312E"/>
<path d="M241.796 130.66C243.673 130.66 245.201 129.92 245.201 128.99C245.201 128.06 243.673 127.32 241.796 127.32C239.919 127.32 238.391 128.06 238.391 128.99C238.391 129.92 239.919 130.66 241.796 130.66Z" fill="#FF8181"/>
<path d="M265.901 130.66C267.779 130.66 269.307 129.92 269.307 128.99C269.307 128.06 267.779 127.32 265.901 127.32C264.024 127.32 262.496 128.06 262.496 128.99C262.496 129.92 264.024 130.66 265.901 130.66Z" fill="#FF8181"/>
<path d="M314.034 179.331C307.293 169.771 293.712 165.751 293.712 165.751L270.853 157.801H236.95L214.092 165.751C214.092 165.751 200.511 169.771 193.77 179.331C193.77 179.331 183.684 191.721 188.098 217.031C188.098 217.031 192.302 233.811 198.993 249.791H211.076L212.604 256.001H305.336C305.336 256.001 307.223 253.101 308.751 249.791H308.781C308.931 249.441 309.07 249.091 309.22 248.731C309.23 248.701 309.24 248.681 309.25 248.651C309.34 248.431 309.43 248.221 309.51 248.001C309.51 247.991 309.51 247.981 309.52 247.971C315.771 232.561 319.666 217.031 319.666 217.031C324.09 191.721 313.994 179.331 313.994 179.331H314.034Z" fill="#B0E1FF"/>
<path d="M209.071 210.011C209.071 210.011 204.347 212.411 200.752 216.571C200.752 216.571 199.344 218.261 198.286 217.131C198.286 217.131 197.437 216.321 198.286 214.091C198.286 214.091 198.505 213.231 199.354 211.721C199.394 211.651 199.444 211.561 199.504 211.451L200.563 209.321C200.952 208.411 201.202 207.541 200.932 207.241C200.762 207.071 200.543 207.111 200.343 207.201C200.073 207.341 199.714 207.611 199.214 208.071C199.214 208.071 193.832 213.461 189.238 221.121C190.896 227.071 194.361 238.621 199.035 249.781L223.8 223.751L209.091 210.011H209.071Z" fill="#80C7E6"/>
<path d="M209.918 195.581C209.658 194.501 209.009 194.741 208.809 194.841C205.364 197.191 212.025 208.221 212.025 208.221H213.783C211.875 204.091 209.908 195.581 209.908 195.581H209.918Z" fill="#80C7E6"/>
<path d="M260.949 168.139L253.898 161.089L264.014 151.199L270.805 157.779L260.959 168.139H260.949Z" fill="#B0E1FF"/>
<path d="M253.896 161.109L248.344 166.649C248.344 166.649 249.682 172.729 253.896 174.559C258.11 172.719 259.448 166.649 259.448 166.649L253.896 161.109Z" fill="#0A223F"/>
<path d="M253.436 172.04V172C242.032 199.43 244.768 255.96 244.768 255.96H253.436V256H262.104C262.104 256 264.84 199.47 253.436 172.04Z" fill="#0A223F"/>
<path d="M259.221 149.661C259.001 148.501 257.683 147.641 256.055 147.641C255.915 147.641 255.775 147.641 255.626 147.661C255.376 146.521 254.078 145.681 252.46 145.681C252.31 145.681 252.17 145.681 252.031 145.701C251.771 144.581 250.483 143.751 248.875 143.751C248.445 143.751 248.016 143.821 247.607 143.941C247.577 143.941 247.557 143.951 247.527 143.961C246.388 144.351 243.562 145.281 242.414 145.671C242.384 145.631 242.344 145.581 242.314 145.541C240.896 143.701 239.608 142.551 238.799 141.931L238.739 141.881C238.739 141.881 238.659 141.811 238.589 141.751C238.349 141.581 238.13 141.441 237.95 141.331L237.84 141.261C237.84 141.261 237.79 141.231 237.76 141.221C237.461 141.061 237.191 140.961 236.941 140.891C240.307 146.731 246.608 150.671 253.848 150.671C256.035 150.671 258.132 150.301 260.089 149.641C259.81 149.611 259.51 149.601 259.221 149.631V149.661Z" fill="#F78A80"/>
<path d="M258.322 163.19C258.322 163.19 261.018 161.01 262.067 157.27C263.505 151.82 261.358 150.84 261.358 150.84C260.919 150.56 260.309 150.38 259.65 150.38C259.161 150.38 258.702 150.48 258.322 150.64C258.452 150.45 258.512 150.23 258.512 150C258.512 149.1 257.413 148.37 256.055 148.37C255.576 148.37 255.127 148.47 254.757 148.62C254.857 148.44 254.927 148.25 254.927 148.04C254.927 147.14 253.828 146.41 252.47 146.41C252.001 146.41 251.562 146.5 251.192 146.66C251.282 146.49 251.342 146.3 251.342 146.12C251.342 145.22 250.243 144.49 248.885 144.49C248.486 144.49 248.116 144.56 247.777 144.67C246.319 145.15 242.145 146.55 242.145 146.55C242.015 146.36 241.875 146.18 241.725 146C240.347 144.21 239.109 143.11 238.32 142.51C238.27 142.47 238.21 142.41 238.16 142.37C237.94 142.21 237.761 142.09 237.571 141.98C237.521 141.95 237.481 141.93 237.481 141.93C236.393 141.33 235.833 141.56 235.584 141.82C235.424 142 235.354 142.27 235.334 142.42C235.324 142.51 235.314 142.59 235.304 142.67C235.284 143.38 235.374 144.22 235.374 144.22L236.962 164.67L237.371 175.27L201.581 217.28C190.846 230.52 201.022 255.93 201.022 255.93H217.019C245.8 234.22 253.958 171.77 253.958 171.77C254.088 171.61 254.208 171.46 254.328 171.31C255.197 170.18 257.403 167.05 258.332 163.19H258.312H258.322Z" fill="#FFAFA4"/>
<path d="M260.128 156.51C260.128 156.51 259.839 156.52 259.759 156.61C259.07 157.44 258.121 158.02 257.152 158.27C256.253 158.49 255.305 158.41 254.446 158.05C254.346 158 254.166 158.03 254.077 158.12C253.987 158.2 253.977 158.31 254.067 158.39C254.835 158.92 255.914 159.09 257.052 158.88C257.182 158.84 257.302 158.83 257.432 158.79C258.371 158.54 259.199 158.02 259.759 157.35L260.208 156.77C260.278 156.67 260.248 156.56 260.138 156.52V156.51H260.128Z" fill="#F78A80"/>
<path d="M258.322 163.191C258.322 163.191 258.602 162.961 259.021 162.521C259.051 162.271 259.061 162.021 259.061 161.761C259.051 161.631 259.051 161.501 259.031 161.371C258.931 160.401 258.542 159.511 257.963 158.861L257.454 158.321C257.374 158.251 257.254 158.251 257.204 158.351H257.194C257.194 158.351 257.164 158.641 257.234 158.741C257.953 159.551 258.372 160.571 258.482 161.561C258.482 161.561 258.532 162.451 258.312 163.191H258.322Z" fill="#F78A80"/>
<path d="M258.299 150.571C256.402 150.871 254.645 151.561 253.077 152.621C253.047 152.641 253.037 152.681 253.047 152.711C253.057 152.741 253.087 152.751 253.117 152.751H253.127C255.004 152.461 256.762 151.771 258.349 150.701C258.379 150.681 258.389 150.641 258.379 150.611C258.369 150.581 258.339 150.561 258.299 150.571Z" fill="#F78A80"/>
<path d="M254.856 148.59C254.856 148.59 254.806 148.54 254.776 148.55C252.879 148.85 251.131 149.54 249.553 150.6C249.523 150.62 249.513 150.66 249.523 150.69C249.533 150.72 249.563 150.73 249.593 150.73H249.603C251.481 150.44 253.238 149.75 254.826 148.68C254.856 148.66 254.866 148.62 254.856 148.59Z" fill="#F78A80"/>
<path d="M251.27 146.641C251.27 146.641 251.23 146.591 251.19 146.601C249.293 146.901 247.535 147.591 245.967 148.651C245.937 148.671 245.927 148.711 245.937 148.741C245.947 148.771 245.977 148.781 246.007 148.781H246.017C247.895 148.491 249.652 147.801 251.24 146.731C251.27 146.711 251.28 146.671 251.27 146.641Z" fill="#F78A80"/>
<path d="M260.947 168.149L270.794 157.789L272.152 158.279C272.152 158.279 267.898 163.329 260.938 168.149H260.947Z" fill="#80C7E6"/>
<path d="M273.802 251.84H370.308V255H271.805V253.84C271.805 252.74 272.703 251.84 273.802 251.84Z" fill="#E6EBF0"/>
<path d="M300.491 252.41L313.323 204.75C313.563 203.88 314.352 203.27 315.251 203.27H379.991C381.279 203.27 382.228 204.47 381.938 205.73L370.305 255L302.419 254.93C301.1 254.93 300.152 253.68 300.491 252.41Z" fill="#E6EBF0"/>
</g>
<rect x="6" y="255" width="488" height="6" fill="#0A223F"/>
<defs>
<clipPath id="clip0_6072_693">
<rect width="195" height="168" fill="white" transform="translate(187 88)"/>
</clipPath>
</defs>
</svg>
