<svg width="84" height="12" viewBox="0 0 84 12" fill="none" xmlns="http://www.w3.org/2000/svg">
<g id="IMG_Similar" opacity="0.7">
<path id="Vector" fill-rule="evenodd" clip-rule="evenodd" d="M38.7443 2.05419C38.45 2.05419 38.2063 1.95653 38.0131 1.76129C37.8286 1.56649 37.7359 1.31841 37.7359 1.01962C37.7359 0.72195 37.8286 0.479166 38.0131 0.29298C38.2063 0.09766 38.45 0 38.7443 0C39.038 0 39.2782 0.09766 39.4632 0.29298C39.6564 0.479166 39.7538 0.72195 39.7538 1.02014C39.7538 1.3179 39.6559 1.56435 39.4632 1.76181C39.2782 1.95653 39.038 2.05419 38.7443 2.05419ZM37.8497 10.3273V3.01081H39.6373V10.3273H37.8497ZM21.9782 1.76181C22.172 1.95704 22.4152 2.05419 22.7095 2.05419C23.0031 2.05419 23.2433 1.95704 23.4283 1.76181C23.6215 1.56435 23.719 1.31841 23.719 1.02022C23.719 0.722462 23.6215 0.479166 23.4283 0.29298C23.2438 0.09766 23.0031 0.000597567 22.7095 0.000597567C22.4157 0.000597567 22.1715 0.09766 21.9782 0.29298C21.7938 0.479678 21.7015 0.722462 21.7015 1.02022C21.7015 1.31841 21.7938 1.56657 21.9787 1.76181H21.9782ZM21.8154 3.0103V10.3274H23.6035V3.0103H21.8154ZM25.0834 3.0103V10.3289H26.8705V6.55201C26.8705 5.88342 27.0149 5.36216 27.3044 4.98757C27.6018 4.61307 27.9883 4.42739 28.4639 4.42739C28.9473 4.42739 29.3054 4.59386 29.5388 4.92893C29.7722 5.26237 29.8882 5.74521 29.8882 6.37479V10.3284H31.6758V6.55201C31.6758 5.88342 31.8201 5.36216 32.1087 4.98757C32.4065 4.61307 32.7976 4.42739 33.2815 4.42739C33.7572 4.42739 34.1065 4.59386 34.3302 4.92893C34.5636 5.26237 34.6795 5.74521 34.6795 6.37479V10.3246H36.4671V6.19449C36.4671 5.09326 36.225 4.25777 35.7411 3.68683C35.2572 3.11701 34.5636 2.83154 33.6592 2.83154C33.1729 2.82796 32.6932 2.94986 32.2638 3.18641C31.8551 3.41264 31.5086 3.74301 31.2574 4.1462C30.8106 3.27118 30.051 2.83368 28.9807 2.83368C28.4968 2.83368 28.0687 2.94149 27.6956 3.15807C27.3389 3.35774 27.0362 3.64688 26.8154 3.99894L26.6623 3.01081H25.0834V3.0103ZM41.1199 0.0624888V10.3289H42.9069V0.0624888H41.1199ZM47.3407 10.5039C46.6888 10.5039 46.106 10.3374 45.5953 10.0024C45.0826 9.66731 44.6781 9.21111 44.3808 8.63121C44.0834 8.05123 43.9335 7.39126 43.9335 6.65548C43.9335 5.91919 44.0829 5.26297 44.3808 4.69365C44.6781 4.11367 45.0847 3.66122 45.5953 3.33632C46.1075 3.00125 46.6888 2.83479 47.3407 2.83479C47.8611 2.83479 48.3187 2.93723 48.7099 3.14475C49.1015 3.35074 49.4174 3.6415 49.659 4.01601V3.01192H51.4466V10.3295H49.8544L49.659 9.28103C49.4359 9.60542 49.1386 9.8914 48.7655 10.1358C48.4007 10.3829 47.9271 10.505 47.3407 10.505V10.5039ZM47.7169 8.85317C48.2951 8.85317 48.7655 8.65042 49.1283 8.24809C49.5014 7.83516 49.6879 7.30802 49.6879 6.66939C49.6879 6.03067 49.5014 5.50942 49.1283 5.10495C48.7655 4.69152 48.2951 4.48604 47.7169 4.48604C47.1495 4.48604 46.6791 4.68828 46.306 5.09061C45.9329 5.49346 45.7463 6.01471 45.7463 6.65548C45.7463 7.29411 45.9329 7.82074 46.306 8.23426C46.6791 8.64504 47.1495 8.85317 47.7174 8.85317H47.7169ZM52.8813 3.00979V10.3274H54.6689V6.99268C54.6689 6.4319 54.7514 5.99388 54.9193 5.68016C55.0971 5.36541 55.3393 5.14397 55.6464 5.01643C55.954 4.88838 56.3035 4.82435 56.6951 4.82435H57.1975L56.6951 3.0103C56.3303 3.0103 55.9458 3.07757 55.6619 3.26051C55.2332 3.53522 54.8815 3.92159 54.6421 4.38095L54.4741 3.00979H52.8813ZM59.7442 10.3289L57.718 3.01192H59.4922L60.6934 8.27796L62.0898 3.01192H64.0737L65.4698 8.27796L66.6859 3.01192H68.4601L66.4205 10.3289H64.5628L63.0824 4.85474L61.6008 10.3289H59.7442ZM70.291 10.0329C70.832 10.3466 71.4504 10.5045 72.1492 10.5045C72.7068 10.5045 73.2061 10.3962 73.6446 10.1801C74.0766 9.97566 74.4585 9.67286 74.7618 9.29443C75.0632 8.9236 75.2869 8.49189 75.4183 8.02673H73.6023C73.4797 8.30306 73.2931 8.52826 73.0427 8.70591C72.7995 8.87238 72.497 8.95612 72.1342 8.95612C71.6503 8.95612 71.235 8.79443 70.8908 8.47004C70.5563 8.14513 70.3698 7.69807 70.3332 7.12713H75.5981C75.6063 6.99908 75.6115 6.87692 75.6115 6.75792C75.6218 6.64105 75.627 6.52743 75.627 6.41909C75.627 5.75059 75.4771 5.1461 75.1797 4.60504C74.9001 4.06271 74.4785 3.61257 73.9635 3.30644C73.4426 2.99271 72.8428 2.83479 72.1626 2.83479C71.435 2.83479 70.8037 3.00125 70.2626 3.33632C69.7318 3.66122 69.3134 4.11691 69.0058 4.70748C68.7085 5.29652 68.559 5.97041 68.559 6.72804C68.559 7.475 68.7121 8.13284 69.0192 8.70429C69.3142 9.26191 69.7551 9.72237 70.291 10.0329ZM71.0031 4.76673C71.3375 4.49996 71.7241 4.36713 72.1626 4.36713C72.6196 4.36713 73.001 4.51114 73.3081 4.79447C73.6158 5.07994 73.7822 5.46358 73.8105 5.9459H70.36C70.4538 5.41552 70.6671 5.02181 71.0031 4.76622V4.76673ZM80.5961 10.5045C80.0736 10.5045 79.6181 10.4015 79.2269 10.1939C78.8426 9.99444 78.5153 9.6942 78.2777 9.3232L78.0809 10.3274H76.4886V0.0618912H78.2756V4.05818C78.4993 3.73379 78.7936 3.44832 79.1564 3.20349C79.5294 2.95695 80.0082 2.83479 80.5945 2.83479C81.2459 2.83479 81.8277 3.00125 82.3398 3.33632C82.8543 3.6742 83.274 4.14739 83.5543 4.70748C83.852 5.28798 84.0012 5.94804 84.0012 6.68373C84.0012 7.42002 83.852 8.08008 83.5543 8.65998C83.2715 9.21478 82.8527 9.68277 82.3398 10.0168C81.8308 10.3433 81.2479 10.5045 80.5961 10.5045ZM80.2194 8.85317C80.7873 8.85317 81.2578 8.65093 81.6308 8.24809C82.0039 7.84584 82.1905 7.32399 82.1905 6.68373C82.1905 6.0451 82.0039 5.51847 81.6308 5.10504C81.2578 4.69203 80.7894 4.48613 80.2194 4.48613C79.6418 4.48613 79.1682 4.69203 78.7951 5.10504C78.4323 5.5078 78.2509 6.02914 78.2509 6.6699C78.2509 7.30802 78.4323 7.83516 78.7951 8.24809C79.1661 8.65093 79.6418 8.85317 80.2194 8.85317ZM19.5429 6.28524C19.9531 6.42396 20.2787 6.63465 20.5209 6.92011C20.7626 7.19705 20.8837 7.594 20.8853 8.11525C20.8993 8.5496 20.7818 8.97789 20.5493 9.33976C20.3159 9.70308 19.9814 9.98855 19.5429 10.1945C19.1049 10.4026 18.5886 10.505 17.9918 10.505C17.3775 10.505 16.8365 10.4004 16.3712 10.1945C15.9058 9.97839 15.5327 9.68388 15.254 9.30937C15.0293 9.00811 14.8731 8.65827 14.7969 8.28599L16.4149 8.02349C16.4736 8.16007 16.6983 8.50905 16.939 8.69046C16.9566 8.70753 16.974 8.72247 16.9926 8.73954L17.0008 8.74697C17.2534 8.94434 17.5739 9.04149 17.9655 9.04149C18.3571 9.04149 18.6406 8.95825 18.8174 8.79179C19.0034 8.62481 19.0956 8.43325 19.0956 8.21658C19.0956 7.90073 18.9652 7.69004 18.7045 7.58171C18.4427 7.46433 18.0794 7.35122 17.6141 7.24289C17.3086 7.17229 17.006 7.0888 16.7071 6.99268C16.4121 6.89911 16.1269 6.77567 15.8554 6.62398C15.6122 6.47458 15.4026 6.2732 15.2405 6.03341C15.0824 5.78849 15.0035 5.48919 15.0035 5.13381C15.0035 4.4845 15.2457 3.94029 15.729 3.49689C16.2232 3.05512 16.9122 2.83316 17.7975 2.83316C18.6168 2.83316 19.2693 3.03591 19.7532 3.43825C20.1341 3.7477 20.4099 4.17505 20.5405 4.65789L19.0466 5.04844L19.0451 5.04101C19.0451 5.04101 18.8488 4.64192 18.5298 4.46632C18.3412 4.35108 18.0923 4.29243 17.7836 4.29243C17.4476 4.29243 17.1868 4.36021 17.0003 4.49833C16.8241 4.63706 16.7349 4.8089 16.7349 5.01481C16.7349 5.23087 16.871 5.40323 17.14 5.53076C17.409 5.65882 17.7687 5.7773 18.2155 5.88555C18.6988 6.00455 19.1429 6.13738 19.5423 6.28464L19.5429 6.28524Z" fill="#9E9E9E"/>
<path id="Vector_2" d="M10.6548 3.26617C10.0364 2.26797 9.14135 1.43402 8.11428 1.01035L7.81029 0.903637C7.47472 0.796245 7.12571 0.740501 6.77447 0.738281C5.66198 0.743574 4.76172 1.69653 4.76172 2.87246C4.76172 3.36221 4.91788 3.81252 5.17965 4.17106L5.05392 4.00033C5.11419 4.09321 5.17965 4.18498 5.25534 4.27777C5.57483 4.67797 6.02831 5.09363 6.61576 5.56528C8.06126 6.72303 8.99855 7.75068 9.07588 9.02418C9.09443 9.19603 9.10573 9.37154 9.10573 9.54919C9.10573 10.1964 8.96969 10.8815 8.73784 11.3632H8.7399C8.7399 11.3632 8.64047 11.5516 8.7028 11.6065C8.73471 11.6349 8.8038 11.6562 8.92434 11.5799C9.57182 11.1438 10.1292 10.5788 10.5641 9.91789C11.205 8.93975 11.555 7.78807 11.5705 6.60616C11.5876 5.42417 11.2692 4.26258 10.6548 3.26617Z" fill="#9E9E9E"/>
<path id="Vector_3" d="M6.26845 7.61441L5.36299 6.84081C3.46666 5.40818 2.4804 3.86304 3.02093 1.95781C3.06991 1.78435 3.13018 1.61575 3.19927 1.4509V1.44877C3.19927 1.44877 3.33317 1.15801 3.04155 1.30151C1.2646 2.30056 0.113769 4.18982 0.00839883 6.28055C-0.0597044 7.59349 0.28782 8.89432 0.997791 9.98446C1.28455 10.4014 1.63537 10.7668 2.03616 11.0665H2.03468C4.03399 12.5902 5.74902 11.7883 5.74902 11.7883H5.7505C6.61845 11.4091 7.18356 10.5218 7.17844 9.54635C7.18232 8.79137 6.84518 8.07625 6.26787 7.61492L6.26845 7.61441Z" fill="#9E9E9E"/>
</g>
</svg>
